<svg height="32px" width="32px" fill="#999" viewBox="0 0 12.7 12.7" version="1.1" x="0px" y="0px">
  <g transform="translate(0,-284.29998)">
    <path style="" d="m 6.2051222,296.43433 a 0.12460938,0.12460938 0 0 0 0.1762023,0 l 1.675697,-1.67573 a 0.12460938,0.12460938 0 0 0 -0.088067,-0.21273 H 4.617492 a 0.12460938,0.12460938 0 0 0 -0.088136,0.21273 z" fill="#999" stroke="none" />
    <path style="" d="M 11.290459,292.79769 H 1.4095343 a 0.12460938,0.12460938 0 0 0 -0.1246058,0.1246 v 0.60987 a 0.12460938,0.12460938 0 0 0 0.1246058,0.12461 h 9.8809247 a 0.12460938,0.12460938 0 0 0 0.124608,-0.12461 v -0.60987 a 0.12460938,0.12460938 0 0 0 -0.124608,-0.1246 z" fill="#999" stroke="none" />
    <path style="" d="M 11.290459,291.07952 H 1.4095343 a 0.12460938,0.12460938 0 0 0 -0.1246058,0.12461 v 0.60987 a 0.12460938,0.12460938 0 0 0 0.1246058,0.12461 h 9.8809247 a 0.12460938,0.12460938 0 0 0 0.124608,-0.12461 v -0.60987 a 0.12460938,0.12460938 0 0 0 -0.124608,-0.12461 z" fill="#999" stroke="none" />
    <path style="" d="m 11.290459,290.22043 a 0.12460938,0.12460938 0 0 0 0.124608,-0.1246 v -0.60987 a 0.12460938,0.12460938 0 0 0 -0.124608,-0.12461 H 1.4095343 a 0.12460938,0.12460938 0 0 0 -0.1246058,0.12461 v 0.60987 a 0.12460938,0.12460938 0 0 0 0.1246058,0.1246 z" fill="#999" stroke="none" />
    <path style="" d="M 11.290459,287.64319 H 1.4095343 a 0.12460938,0.12460938 0 0 0 -0.1246058,0.12461 v 0.60986 a 0.12460938,0.12460938 0 0 0 0.1246058,0.12461 h 9.8809247 a 0.12460938,0.12460938 0 0 0 0.124608,-0.12461 v -0.60986 a 0.12460938,0.12460938 0 0 0 -0.124608,-0.12461 z" fill="#999" stroke="none" />
    <path style="" d="m 6.2051222,284.86563 -1.6757657,1.67573 a 0.12460938,0.12460938 0 0 0 0.088136,0.21272 h 3.3514627 a 0.12460938,0.12460938 0 0 0 0.088067,-0.21272 l -1.675697,-1.67573 a 0.12460938,0.12460938 0 0 0 -0.176203,0 z" fill="#999" stroke="none" />
  </g>
</svg>